<mxfile host="app.diagrams.net" agent="Mozilla/5.0 (Windows NT 10.0; Win64; x64) AppleWebKit/537.36 (KHTML, like Gecko) Chrome/131.0.0.0 Safari/537.36" version="25.0.3">
  <diagram name="Page-1" id="YNq7k5LJAqvkkTREv0vf">
    <mxGraphModel dx="819" dy="1526" grid="1" gridSize="10" guides="1" tooltips="1" connect="1" arrows="1" fold="1" page="1" pageScale="1" pageWidth="850" pageHeight="1100" math="0" shadow="0">
      <root>
        <mxCell id="0" />
        <mxCell id="1" parent="0" />
        <mxCell id="2HWY9vDRjP_LY5cu4pKA-1" value="" style="rounded=0;whiteSpace=wrap;html=1;" vertex="1" parent="1">
          <mxGeometry x="280" y="-40" width="40" height="40" as="geometry" />
        </mxCell>
        <mxCell id="2HWY9vDRjP_LY5cu4pKA-2" value="" style="endArrow=classic;html=1;rounded=0;" edge="1" parent="1">
          <mxGeometry width="50" height="50" relative="1" as="geometry">
            <mxPoint x="120" y="440" as="sourcePoint" />
            <mxPoint x="210" y="440" as="targetPoint" />
          </mxGeometry>
        </mxCell>
        <mxCell id="2HWY9vDRjP_LY5cu4pKA-3" value="i_col" style="text;html=1;align=center;verticalAlign=middle;whiteSpace=wrap;rounded=0;" vertex="1" parent="1">
          <mxGeometry x="120" y="400" width="60" height="30" as="geometry" />
        </mxCell>
        <mxCell id="2HWY9vDRjP_LY5cu4pKA-5" value="i_row" style="text;html=1;align=center;verticalAlign=middle;whiteSpace=wrap;rounded=0;" vertex="1" parent="1">
          <mxGeometry x="120" y="450" width="60" height="30" as="geometry" />
        </mxCell>
        <mxCell id="2HWY9vDRjP_LY5cu4pKA-6" value="" style="endArrow=classic;html=1;rounded=0;" edge="1" parent="1">
          <mxGeometry width="50" height="50" relative="1" as="geometry">
            <mxPoint x="120" y="480" as="sourcePoint" />
            <mxPoint x="210" y="480" as="targetPoint" />
          </mxGeometry>
        </mxCell>
        <mxCell id="2HWY9vDRjP_LY5cu4pKA-9" value="" style="rounded=0;whiteSpace=wrap;html=1;" vertex="1" parent="1">
          <mxGeometry x="280" width="40" height="40" as="geometry" />
        </mxCell>
        <mxCell id="2HWY9vDRjP_LY5cu4pKA-12" value="" style="rounded=0;whiteSpace=wrap;html=1;" vertex="1" parent="1">
          <mxGeometry x="280" y="40" width="40" height="40" as="geometry" />
        </mxCell>
        <mxCell id="2HWY9vDRjP_LY5cu4pKA-16" value="" style="endArrow=classic;html=1;rounded=0;entryX=0;entryY=0.5;entryDx=0;entryDy=0;" edge="1" parent="1">
          <mxGeometry width="50" height="50" relative="1" as="geometry">
            <mxPoint x="190" y="20" as="sourcePoint" />
            <mxPoint x="280" y="20" as="targetPoint" />
          </mxGeometry>
        </mxCell>
        <mxCell id="2HWY9vDRjP_LY5cu4pKA-17" value="data0" style="text;html=1;align=center;verticalAlign=middle;whiteSpace=wrap;rounded=0;" vertex="1" parent="1">
          <mxGeometry x="160" y="-50" width="60" height="20" as="geometry" />
        </mxCell>
        <mxCell id="2HWY9vDRjP_LY5cu4pKA-18" value="" style="endArrow=classic;html=1;rounded=0;" edge="1" parent="1">
          <mxGeometry width="50" height="50" relative="1" as="geometry">
            <mxPoint x="190" y="-20" as="sourcePoint" />
            <mxPoint x="279" y="-20" as="targetPoint" />
          </mxGeometry>
        </mxCell>
        <mxCell id="2HWY9vDRjP_LY5cu4pKA-19" value="data2" style="text;html=1;align=center;verticalAlign=middle;whiteSpace=wrap;rounded=0;" vertex="1" parent="1">
          <mxGeometry x="160" width="60" height="20" as="geometry" />
        </mxCell>
        <mxCell id="2HWY9vDRjP_LY5cu4pKA-20" value="" style="endArrow=classic;html=1;rounded=0;entryX=-0.019;entryY=0.912;entryDx=0;entryDy=0;entryPerimeter=0;" edge="1" parent="1">
          <mxGeometry width="50" height="50" relative="1" as="geometry">
            <mxPoint x="190.76" y="60" as="sourcePoint" />
            <mxPoint x="279.9999999999999" y="59.440000000000055" as="targetPoint" />
          </mxGeometry>
        </mxCell>
        <mxCell id="2HWY9vDRjP_LY5cu4pKA-21" value="data3" style="text;html=1;align=center;verticalAlign=middle;whiteSpace=wrap;rounded=0;" vertex="1" parent="1">
          <mxGeometry x="160.76" y="40" width="60" height="20" as="geometry" />
        </mxCell>
        <mxCell id="2HWY9vDRjP_LY5cu4pKA-22" value="Controller" style="rounded=0;whiteSpace=wrap;html=1;" vertex="1" parent="1">
          <mxGeometry x="210" y="430" width="210" height="110" as="geometry" />
        </mxCell>
        <mxCell id="2HWY9vDRjP_LY5cu4pKA-23" value="sum1" style="rounded=0;whiteSpace=wrap;html=1;" vertex="1" parent="1">
          <mxGeometry x="277.5" y="200" width="45" height="40" as="geometry" />
        </mxCell>
        <mxCell id="2HWY9vDRjP_LY5cu4pKA-24" value="sum2" style="rounded=0;whiteSpace=wrap;html=1;" vertex="1" parent="1">
          <mxGeometry x="360" y="200" width="45" height="40" as="geometry" />
        </mxCell>
        <mxCell id="2HWY9vDRjP_LY5cu4pKA-25" value="sum3" style="rounded=0;whiteSpace=wrap;html=1;" vertex="1" parent="1">
          <mxGeometry x="440" y="200" width="45" height="40" as="geometry" />
        </mxCell>
        <mxCell id="2HWY9vDRjP_LY5cu4pKA-30" value="Muy = SUM_ALL / 9" style="rounded=0;whiteSpace=wrap;html=1;" vertex="1" parent="1">
          <mxGeometry x="701" y="185" width="149" height="70" as="geometry" />
        </mxCell>
        <mxCell id="2HWY9vDRjP_LY5cu4pKA-31" value="" style="endArrow=classic;html=1;rounded=0;exitX=1.003;exitY=0.184;exitDx=0;exitDy=0;exitPerimeter=0;" edge="1" parent="1" source="2HWY9vDRjP_LY5cu4pKA-22">
          <mxGeometry width="50" height="50" relative="1" as="geometry">
            <mxPoint x="430" y="490" as="sourcePoint" />
            <mxPoint x="480" y="450" as="targetPoint" />
          </mxGeometry>
        </mxCell>
        <mxCell id="2HWY9vDRjP_LY5cu4pKA-32" value="s_all_en" style="text;html=1;align=center;verticalAlign=middle;whiteSpace=wrap;rounded=0;" vertex="1" parent="1">
          <mxGeometry x="425" y="410" width="60" height="30" as="geometry" />
        </mxCell>
        <mxCell id="2HWY9vDRjP_LY5cu4pKA-33" value="" style="endArrow=classic;html=1;rounded=0;exitX=1;exitY=0.5;exitDx=0;exitDy=0;" edge="1" parent="1" source="2HWY9vDRjP_LY5cu4pKA-22">
          <mxGeometry width="50" height="50" relative="1" as="geometry">
            <mxPoint x="430" y="490" as="sourcePoint" />
            <mxPoint x="480" y="485" as="targetPoint" />
          </mxGeometry>
        </mxCell>
        <mxCell id="2HWY9vDRjP_LY5cu4pKA-34" value="accum_en" style="text;html=1;align=center;verticalAlign=middle;whiteSpace=wrap;rounded=0;" vertex="1" parent="1">
          <mxGeometry x="420" y="450" width="60" height="30" as="geometry" />
        </mxCell>
        <mxCell id="2HWY9vDRjP_LY5cu4pKA-35" value="" style="endArrow=classic;html=1;rounded=0;entryX=0;entryY=1;entryDx=0;entryDy=0;entryPerimeter=0;" edge="1" parent="1">
          <mxGeometry width="50" height="50" relative="1" as="geometry">
            <mxPoint x="120" y="520" as="sourcePoint" />
            <mxPoint x="210" y="520" as="targetPoint" />
          </mxGeometry>
        </mxCell>
        <mxCell id="2HWY9vDRjP_LY5cu4pKA-44" value="" style="rounded=0;whiteSpace=wrap;html=1;" vertex="1" parent="1">
          <mxGeometry x="280" y="80" width="40" height="40" as="geometry" />
        </mxCell>
        <mxCell id="2HWY9vDRjP_LY5cu4pKA-45" value="" style="rounded=0;whiteSpace=wrap;html=1;" vertex="1" parent="1">
          <mxGeometry x="280" y="120" width="40" height="40" as="geometry" />
        </mxCell>
        <mxCell id="2HWY9vDRjP_LY5cu4pKA-46" value="" style="rounded=0;whiteSpace=wrap;html=1;" vertex="1" parent="1">
          <mxGeometry x="360" y="-40" width="40" height="40" as="geometry" />
        </mxCell>
        <mxCell id="2HWY9vDRjP_LY5cu4pKA-47" value="" style="rounded=0;whiteSpace=wrap;html=1;" vertex="1" parent="1">
          <mxGeometry x="360" width="40" height="40" as="geometry" />
        </mxCell>
        <mxCell id="2HWY9vDRjP_LY5cu4pKA-48" value="" style="rounded=0;whiteSpace=wrap;html=1;" vertex="1" parent="1">
          <mxGeometry x="360" y="40" width="40" height="40" as="geometry" />
        </mxCell>
        <mxCell id="2HWY9vDRjP_LY5cu4pKA-49" value="" style="rounded=0;whiteSpace=wrap;html=1;" vertex="1" parent="1">
          <mxGeometry x="360" y="80" width="40" height="40" as="geometry" />
        </mxCell>
        <mxCell id="2HWY9vDRjP_LY5cu4pKA-50" value="" style="rounded=0;whiteSpace=wrap;html=1;" vertex="1" parent="1">
          <mxGeometry x="360" y="120" width="40" height="40" as="geometry" />
        </mxCell>
        <mxCell id="2HWY9vDRjP_LY5cu4pKA-66" value="sum4" style="rounded=0;whiteSpace=wrap;html=1;" vertex="1" parent="1">
          <mxGeometry x="517.5" y="200" width="45" height="40" as="geometry" />
        </mxCell>
        <mxCell id="2HWY9vDRjP_LY5cu4pKA-67" value="sum5" style="rounded=0;whiteSpace=wrap;html=1;" vertex="1" parent="1">
          <mxGeometry x="601" y="200" width="45" height="40" as="geometry" />
        </mxCell>
        <mxCell id="2HWY9vDRjP_LY5cu4pKA-68" value="" style="endArrow=classic;html=1;rounded=0;exitX=1;exitY=0.5;exitDx=0;exitDy=0;entryX=0;entryY=0.5;entryDx=0;entryDy=0;" edge="1" parent="1" source="2HWY9vDRjP_LY5cu4pKA-1" target="2HWY9vDRjP_LY5cu4pKA-46">
          <mxGeometry width="50" height="50" relative="1" as="geometry">
            <mxPoint x="340" y="5" as="sourcePoint" />
            <mxPoint x="390" y="-45" as="targetPoint" />
          </mxGeometry>
        </mxCell>
        <mxCell id="2HWY9vDRjP_LY5cu4pKA-69" value="" style="endArrow=classic;html=1;rounded=0;exitX=1;exitY=0.5;exitDx=0;exitDy=0;entryX=0;entryY=0.5;entryDx=0;entryDy=0;" edge="1" parent="1">
          <mxGeometry width="50" height="50" relative="1" as="geometry">
            <mxPoint x="320" y="20" as="sourcePoint" />
            <mxPoint x="360" y="20" as="targetPoint" />
          </mxGeometry>
        </mxCell>
        <mxCell id="2HWY9vDRjP_LY5cu4pKA-70" value="" style="endArrow=classic;html=1;rounded=0;exitX=1;exitY=0.5;exitDx=0;exitDy=0;entryX=0;entryY=0.5;entryDx=0;entryDy=0;" edge="1" parent="1">
          <mxGeometry width="50" height="50" relative="1" as="geometry">
            <mxPoint x="320" y="59.760000000000005" as="sourcePoint" />
            <mxPoint x="360" y="59.760000000000005" as="targetPoint" />
          </mxGeometry>
        </mxCell>
        <mxCell id="2HWY9vDRjP_LY5cu4pKA-71" value="" style="endArrow=classic;html=1;rounded=0;exitX=1;exitY=0.5;exitDx=0;exitDy=0;entryX=0;entryY=0.5;entryDx=0;entryDy=0;" edge="1" parent="1">
          <mxGeometry width="50" height="50" relative="1" as="geometry">
            <mxPoint x="320" y="99.76" as="sourcePoint" />
            <mxPoint x="360" y="99.76" as="targetPoint" />
          </mxGeometry>
        </mxCell>
        <mxCell id="2HWY9vDRjP_LY5cu4pKA-72" value="" style="endArrow=classic;html=1;rounded=0;exitX=1;exitY=0.5;exitDx=0;exitDy=0;entryX=0;entryY=0.5;entryDx=0;entryDy=0;" edge="1" parent="1">
          <mxGeometry width="50" height="50" relative="1" as="geometry">
            <mxPoint x="320" y="139.76" as="sourcePoint" />
            <mxPoint x="360" y="139.76" as="targetPoint" />
          </mxGeometry>
        </mxCell>
        <mxCell id="2HWY9vDRjP_LY5cu4pKA-73" value="" style="rounded=0;whiteSpace=wrap;html=1;" vertex="1" parent="1">
          <mxGeometry x="440" y="-40" width="40" height="40" as="geometry" />
        </mxCell>
        <mxCell id="2HWY9vDRjP_LY5cu4pKA-74" value="" style="rounded=0;whiteSpace=wrap;html=1;" vertex="1" parent="1">
          <mxGeometry x="440" width="40" height="40" as="geometry" />
        </mxCell>
        <mxCell id="2HWY9vDRjP_LY5cu4pKA-75" value="" style="rounded=0;whiteSpace=wrap;html=1;" vertex="1" parent="1">
          <mxGeometry x="440" y="40" width="40" height="40" as="geometry" />
        </mxCell>
        <mxCell id="2HWY9vDRjP_LY5cu4pKA-76" value="" style="rounded=0;whiteSpace=wrap;html=1;" vertex="1" parent="1">
          <mxGeometry x="440" y="80" width="40" height="40" as="geometry" />
        </mxCell>
        <mxCell id="2HWY9vDRjP_LY5cu4pKA-77" value="" style="rounded=0;whiteSpace=wrap;html=1;" vertex="1" parent="1">
          <mxGeometry x="440" y="120" width="40" height="40" as="geometry" />
        </mxCell>
        <mxCell id="2HWY9vDRjP_LY5cu4pKA-78" value="" style="rounded=0;whiteSpace=wrap;html=1;" vertex="1" parent="1">
          <mxGeometry x="520" y="-40" width="40" height="40" as="geometry" />
        </mxCell>
        <mxCell id="2HWY9vDRjP_LY5cu4pKA-79" value="" style="rounded=0;whiteSpace=wrap;html=1;" vertex="1" parent="1">
          <mxGeometry x="520" width="40" height="40" as="geometry" />
        </mxCell>
        <mxCell id="2HWY9vDRjP_LY5cu4pKA-80" value="" style="rounded=0;whiteSpace=wrap;html=1;" vertex="1" parent="1">
          <mxGeometry x="520" y="40" width="40" height="40" as="geometry" />
        </mxCell>
        <mxCell id="2HWY9vDRjP_LY5cu4pKA-81" value="" style="rounded=0;whiteSpace=wrap;html=1;" vertex="1" parent="1">
          <mxGeometry x="520" y="80" width="40" height="40" as="geometry" />
        </mxCell>
        <mxCell id="2HWY9vDRjP_LY5cu4pKA-82" value="" style="rounded=0;whiteSpace=wrap;html=1;" vertex="1" parent="1">
          <mxGeometry x="520" y="120" width="40" height="40" as="geometry" />
        </mxCell>
        <mxCell id="2HWY9vDRjP_LY5cu4pKA-83" value="" style="endArrow=classic;html=1;rounded=0;exitX=1;exitY=0.5;exitDx=0;exitDy=0;entryX=0;entryY=0.5;entryDx=0;entryDy=0;" edge="1" parent="1" source="2HWY9vDRjP_LY5cu4pKA-73" target="2HWY9vDRjP_LY5cu4pKA-78">
          <mxGeometry width="50" height="50" relative="1" as="geometry">
            <mxPoint x="500" y="5" as="sourcePoint" />
            <mxPoint x="550" y="-45" as="targetPoint" />
          </mxGeometry>
        </mxCell>
        <mxCell id="2HWY9vDRjP_LY5cu4pKA-84" value="" style="endArrow=classic;html=1;rounded=0;exitX=1;exitY=0.5;exitDx=0;exitDy=0;entryX=0;entryY=0.5;entryDx=0;entryDy=0;" edge="1" parent="1">
          <mxGeometry width="50" height="50" relative="1" as="geometry">
            <mxPoint x="480" y="20" as="sourcePoint" />
            <mxPoint x="520" y="20" as="targetPoint" />
          </mxGeometry>
        </mxCell>
        <mxCell id="2HWY9vDRjP_LY5cu4pKA-85" value="" style="endArrow=classic;html=1;rounded=0;exitX=1;exitY=0.5;exitDx=0;exitDy=0;entryX=0;entryY=0.5;entryDx=0;entryDy=0;" edge="1" parent="1">
          <mxGeometry width="50" height="50" relative="1" as="geometry">
            <mxPoint x="480" y="59.760000000000005" as="sourcePoint" />
            <mxPoint x="520" y="59.760000000000005" as="targetPoint" />
          </mxGeometry>
        </mxCell>
        <mxCell id="2HWY9vDRjP_LY5cu4pKA-86" value="" style="endArrow=classic;html=1;rounded=0;exitX=1;exitY=0.5;exitDx=0;exitDy=0;entryX=0;entryY=0.5;entryDx=0;entryDy=0;" edge="1" parent="1">
          <mxGeometry width="50" height="50" relative="1" as="geometry">
            <mxPoint x="480" y="99.76" as="sourcePoint" />
            <mxPoint x="520" y="99.76" as="targetPoint" />
          </mxGeometry>
        </mxCell>
        <mxCell id="2HWY9vDRjP_LY5cu4pKA-87" value="" style="endArrow=classic;html=1;rounded=0;exitX=1;exitY=0.5;exitDx=0;exitDy=0;entryX=0;entryY=0.5;entryDx=0;entryDy=0;" edge="1" parent="1">
          <mxGeometry width="50" height="50" relative="1" as="geometry">
            <mxPoint x="480" y="139.76" as="sourcePoint" />
            <mxPoint x="520" y="139.76" as="targetPoint" />
          </mxGeometry>
        </mxCell>
        <mxCell id="2HWY9vDRjP_LY5cu4pKA-88" value="" style="rounded=0;whiteSpace=wrap;html=1;" vertex="1" parent="1">
          <mxGeometry x="600" y="-40" width="40" height="40" as="geometry" />
        </mxCell>
        <mxCell id="2HWY9vDRjP_LY5cu4pKA-89" value="" style="rounded=0;whiteSpace=wrap;html=1;" vertex="1" parent="1">
          <mxGeometry x="600" width="40" height="40" as="geometry" />
        </mxCell>
        <mxCell id="2HWY9vDRjP_LY5cu4pKA-90" value="" style="rounded=0;whiteSpace=wrap;html=1;" vertex="1" parent="1">
          <mxGeometry x="600" y="40" width="40" height="40" as="geometry" />
        </mxCell>
        <mxCell id="2HWY9vDRjP_LY5cu4pKA-91" value="" style="rounded=0;whiteSpace=wrap;html=1;" vertex="1" parent="1">
          <mxGeometry x="600" y="80" width="40" height="40" as="geometry" />
        </mxCell>
        <mxCell id="2HWY9vDRjP_LY5cu4pKA-92" value="" style="rounded=0;whiteSpace=wrap;html=1;" vertex="1" parent="1">
          <mxGeometry x="600" y="120" width="40" height="40" as="geometry" />
        </mxCell>
        <mxCell id="2HWY9vDRjP_LY5cu4pKA-103" value="" style="endArrow=classic;html=1;rounded=0;exitX=1;exitY=0.5;exitDx=0;exitDy=0;entryX=0;entryY=0.5;entryDx=0;entryDy=0;" edge="1" parent="1">
          <mxGeometry width="50" height="50" relative="1" as="geometry">
            <mxPoint x="560" y="-20.12" as="sourcePoint" />
            <mxPoint x="600" y="-20.12" as="targetPoint" />
          </mxGeometry>
        </mxCell>
        <mxCell id="2HWY9vDRjP_LY5cu4pKA-104" value="" style="endArrow=classic;html=1;rounded=0;exitX=1;exitY=0.5;exitDx=0;exitDy=0;entryX=0;entryY=0.5;entryDx=0;entryDy=0;" edge="1" parent="1">
          <mxGeometry width="50" height="50" relative="1" as="geometry">
            <mxPoint x="560" y="19.88" as="sourcePoint" />
            <mxPoint x="600" y="19.88" as="targetPoint" />
          </mxGeometry>
        </mxCell>
        <mxCell id="2HWY9vDRjP_LY5cu4pKA-105" value="" style="endArrow=classic;html=1;rounded=0;exitX=1;exitY=0.5;exitDx=0;exitDy=0;entryX=0;entryY=0.5;entryDx=0;entryDy=0;" edge="1" parent="1">
          <mxGeometry width="50" height="50" relative="1" as="geometry">
            <mxPoint x="560" y="59.64000000000001" as="sourcePoint" />
            <mxPoint x="600" y="59.64000000000001" as="targetPoint" />
          </mxGeometry>
        </mxCell>
        <mxCell id="2HWY9vDRjP_LY5cu4pKA-106" value="" style="endArrow=classic;html=1;rounded=0;exitX=1;exitY=0.5;exitDx=0;exitDy=0;entryX=0;entryY=0.5;entryDx=0;entryDy=0;" edge="1" parent="1">
          <mxGeometry width="50" height="50" relative="1" as="geometry">
            <mxPoint x="560" y="99.64" as="sourcePoint" />
            <mxPoint x="600" y="99.64" as="targetPoint" />
          </mxGeometry>
        </mxCell>
        <mxCell id="2HWY9vDRjP_LY5cu4pKA-107" value="" style="endArrow=classic;html=1;rounded=0;exitX=1;exitY=0.5;exitDx=0;exitDy=0;entryX=0;entryY=0.5;entryDx=0;entryDy=0;" edge="1" parent="1">
          <mxGeometry width="50" height="50" relative="1" as="geometry">
            <mxPoint x="560" y="139.64" as="sourcePoint" />
            <mxPoint x="600" y="139.64" as="targetPoint" />
          </mxGeometry>
        </mxCell>
        <mxCell id="2HWY9vDRjP_LY5cu4pKA-108" value="" style="endArrow=classic;html=1;rounded=0;exitX=1;exitY=0.5;exitDx=0;exitDy=0;entryX=0;entryY=0.5;entryDx=0;entryDy=0;" edge="1" parent="1">
          <mxGeometry width="50" height="50" relative="1" as="geometry">
            <mxPoint x="400" y="-20.12" as="sourcePoint" />
            <mxPoint x="440" y="-20.12" as="targetPoint" />
          </mxGeometry>
        </mxCell>
        <mxCell id="2HWY9vDRjP_LY5cu4pKA-109" value="" style="endArrow=classic;html=1;rounded=0;exitX=1;exitY=0.5;exitDx=0;exitDy=0;entryX=0;entryY=0.5;entryDx=0;entryDy=0;" edge="1" parent="1">
          <mxGeometry width="50" height="50" relative="1" as="geometry">
            <mxPoint x="400" y="19.88" as="sourcePoint" />
            <mxPoint x="440" y="19.88" as="targetPoint" />
          </mxGeometry>
        </mxCell>
        <mxCell id="2HWY9vDRjP_LY5cu4pKA-110" value="" style="endArrow=classic;html=1;rounded=0;exitX=1;exitY=0.5;exitDx=0;exitDy=0;entryX=0;entryY=0.5;entryDx=0;entryDy=0;" edge="1" parent="1">
          <mxGeometry width="50" height="50" relative="1" as="geometry">
            <mxPoint x="400" y="59.640000000000015" as="sourcePoint" />
            <mxPoint x="440" y="59.640000000000015" as="targetPoint" />
          </mxGeometry>
        </mxCell>
        <mxCell id="2HWY9vDRjP_LY5cu4pKA-111" value="" style="endArrow=classic;html=1;rounded=0;exitX=1;exitY=0.5;exitDx=0;exitDy=0;entryX=0;entryY=0.5;entryDx=0;entryDy=0;" edge="1" parent="1">
          <mxGeometry width="50" height="50" relative="1" as="geometry">
            <mxPoint x="400" y="99.64" as="sourcePoint" />
            <mxPoint x="440" y="99.64" as="targetPoint" />
          </mxGeometry>
        </mxCell>
        <mxCell id="2HWY9vDRjP_LY5cu4pKA-112" value="" style="endArrow=classic;html=1;rounded=0;exitX=1;exitY=0.5;exitDx=0;exitDy=0;entryX=0;entryY=0.5;entryDx=0;entryDy=0;" edge="1" parent="1">
          <mxGeometry width="50" height="50" relative="1" as="geometry">
            <mxPoint x="400" y="139.64" as="sourcePoint" />
            <mxPoint x="440" y="139.64" as="targetPoint" />
          </mxGeometry>
        </mxCell>
        <mxCell id="2HWY9vDRjP_LY5cu4pKA-114" value="done_i" style="text;html=1;align=center;verticalAlign=middle;whiteSpace=wrap;rounded=0;" vertex="1" parent="1">
          <mxGeometry x="120" y="490" width="60" height="30" as="geometry" />
        </mxCell>
        <mxCell id="2HWY9vDRjP_LY5cu4pKA-115" value="" style="endArrow=classic;html=1;rounded=0;entryX=0;entryY=0.5;entryDx=0;entryDy=0;" edge="1" parent="1">
          <mxGeometry width="50" height="50" relative="1" as="geometry">
            <mxPoint x="190" y="100" as="sourcePoint" />
            <mxPoint x="280" y="100" as="targetPoint" />
          </mxGeometry>
        </mxCell>
        <mxCell id="2HWY9vDRjP_LY5cu4pKA-116" value="data4" style="text;html=1;align=center;verticalAlign=middle;whiteSpace=wrap;rounded=0;" vertex="1" parent="1">
          <mxGeometry x="160" y="80" width="60" height="20" as="geometry" />
        </mxCell>
        <mxCell id="2HWY9vDRjP_LY5cu4pKA-119" value="" style="endArrow=classic;html=1;rounded=0;entryX=0;entryY=0.5;entryDx=0;entryDy=0;" edge="1" parent="1">
          <mxGeometry width="50" height="50" relative="1" as="geometry">
            <mxPoint x="190.76" y="140" as="sourcePoint" />
            <mxPoint x="280.76" y="140" as="targetPoint" />
          </mxGeometry>
        </mxCell>
        <mxCell id="2HWY9vDRjP_LY5cu4pKA-120" value="data5" style="text;html=1;align=center;verticalAlign=middle;whiteSpace=wrap;rounded=0;" vertex="1" parent="1">
          <mxGeometry x="160.76" y="120" width="60" height="20" as="geometry" />
        </mxCell>
      </root>
    </mxGraphModel>
  </diagram>
</mxfile>
